<svg width="30" height="28" viewBox="0 0 30 28" fill="none" xmlns="http://www.w3.org/2000/svg">
                                                        <path d="M17.9636 18.8194C17.2561 19.5282 16.3136 19.9183 15.3123 19.9183C14.3111 19.9183 13.3686 19.5282 12.6612 18.8194L7.34863 13.5071C6.64002 12.7994 6.25001 11.8571 6.25001 10.8558C6.25001 9.85442 6.64002 8.91213 7.34863 8.20466C8.0561 7.49582 8.99862 7.10581 9.99997 7.10581C11.0011 7.10581 11.9436 7.49582 12.6511 8.20466L15.3123 10.8645L22.6586 3.51835C20.2586 1.47217 17.1511 0.230957 13.7499 0.230957C6.15617 0.230957 0 6.38713 0 13.9807C0 21.5744 6.15617 27.7306 13.7499 27.7306C21.3435 27.7306 27.4996 21.5744 27.4996 13.9807C27.4996 12.5595 27.2836 11.1895 26.8835 9.89951L17.9636 18.8194Z" fill="red"></path>
                                                        <path d="M15.3123 17.4181C14.9923 17.4181 14.6723 17.2956 14.4286 17.0519L9.11627 11.7394C8.62738 11.2507 8.62738 10.4606 9.11627 9.97195C9.60493 9.48307 10.3948 9.48307 10.8837 9.97195L15.3123 14.4005L27.8661 1.84696C28.3547 1.3583 29.1446 1.3583 29.6335 1.84696C30.1221 2.33585 30.1221 3.12571 29.6335 3.6146L16.196 17.0519C15.9524 17.2956 15.6322 17.4181 15.3123 17.4181Z" fill="red"></path>
                                                    </svg>